<mxfile host="app.diagrams.net" agent="Mozilla/5.0 (Windows NT 10.0; Win64; x64) AppleWebKit/537.36 (KHTML, like Gecko) Chrome/130.0.0.0 YaBrowser/24.12.0.0 Safari/537.36" version="24.8.3">
  <diagram name="Страница — 1" id="Tp8OsFLcdsAqWSvYROJv">
    <mxGraphModel dx="724" dy="457" grid="0" gridSize="10" guides="1" tooltips="1" connect="1" arrows="1" fold="1" page="1" pageScale="1" pageWidth="1169" pageHeight="1654" math="0" shadow="0">
      <root>
        <mxCell id="0" />
        <mxCell id="1" parent="0" />
        <mxCell id="3-A2UudCUCXNyehRnWcf-1" value="Прогнозирование&lt;br&gt;временных рядов&lt;br&gt;&amp;nbsp; &amp;nbsp; &amp;nbsp; &amp;nbsp; &amp;nbsp; &amp;nbsp; &amp;nbsp; &amp;nbsp; &amp;nbsp; &amp;nbsp; &amp;nbsp;&amp;nbsp;&lt;br&gt;&amp;nbsp; &amp;nbsp; &amp;nbsp; &amp;nbsp; &amp;nbsp; &amp;nbsp; &amp;nbsp; &amp;nbsp; &amp;nbsp; &amp;nbsp; &amp;nbsp; &amp;nbsp; &amp;nbsp; &amp;nbsp; &amp;nbsp; &amp;nbsp; &amp;nbsp; &amp;nbsp; &amp;nbsp; &amp;nbsp; 0" style="rounded=0;whiteSpace=wrap;html=1;" vertex="1" parent="1">
          <mxGeometry x="360" y="200" width="160" height="80" as="geometry" />
        </mxCell>
        <mxCell id="3-A2UudCUCXNyehRnWcf-2" value="" style="endArrow=classic;html=1;rounded=0;entryX=0;entryY=0.5;entryDx=0;entryDy=0;" edge="1" parent="1" target="3-A2UudCUCXNyehRnWcf-1">
          <mxGeometry width="50" height="50" relative="1" as="geometry">
            <mxPoint x="80" y="240" as="sourcePoint" />
            <mxPoint x="210" y="220" as="targetPoint" />
          </mxGeometry>
        </mxCell>
        <mxCell id="3-A2UudCUCXNyehRnWcf-3" value="Массив временных рядов" style="edgeLabel;html=1;align=center;verticalAlign=middle;resizable=0;points=[];" vertex="1" connectable="0" parent="3-A2UudCUCXNyehRnWcf-2">
          <mxGeometry x="-0.1868" relative="1" as="geometry">
            <mxPoint x="23" y="-10" as="offset" />
          </mxGeometry>
        </mxCell>
        <mxCell id="3-A2UudCUCXNyehRnWcf-5" value="" style="endArrow=classic;html=1;rounded=0;exitX=1;exitY=0.25;exitDx=0;exitDy=0;" edge="1" parent="1" source="3-A2UudCUCXNyehRnWcf-1">
          <mxGeometry width="50" height="50" relative="1" as="geometry">
            <mxPoint x="560" y="260" as="sourcePoint" />
            <mxPoint x="880" y="220" as="targetPoint" />
          </mxGeometry>
        </mxCell>
        <mxCell id="3-A2UudCUCXNyehRnWcf-6" value="Массив спрогнозированных значений" style="edgeLabel;html=1;align=center;verticalAlign=middle;resizable=0;points=[];" vertex="1" connectable="0" parent="3-A2UudCUCXNyehRnWcf-5">
          <mxGeometry x="-0.3973" y="-3" relative="1" as="geometry">
            <mxPoint x="12" y="-13" as="offset" />
          </mxGeometry>
        </mxCell>
        <mxCell id="3-A2UudCUCXNyehRnWcf-7" value="" style="endArrow=classic;html=1;rounded=0;exitX=1;exitY=0.75;exitDx=0;exitDy=0;" edge="1" parent="1" source="3-A2UudCUCXNyehRnWcf-1">
          <mxGeometry width="50" height="50" relative="1" as="geometry">
            <mxPoint x="530" y="300" as="sourcePoint" />
            <mxPoint x="880" y="260" as="targetPoint" />
          </mxGeometry>
        </mxCell>
        <mxCell id="3-A2UudCUCXNyehRnWcf-8" value="Ошибки MAE, MSE, RMSE" style="text;html=1;align=center;verticalAlign=middle;resizable=0;points=[];autosize=1;strokeColor=none;fillColor=none;" vertex="1" parent="1">
          <mxGeometry x="540" y="230" width="170" height="30" as="geometry" />
        </mxCell>
        <mxCell id="3-A2UudCUCXNyehRnWcf-10" value="" style="endArrow=classic;html=1;rounded=0;entryX=0.5;entryY=0;entryDx=0;entryDy=0;" edge="1" parent="1" target="3-A2UudCUCXNyehRnWcf-1">
          <mxGeometry width="50" height="50" relative="1" as="geometry">
            <mxPoint x="440" y="60" as="sourcePoint" />
            <mxPoint x="470" y="50" as="targetPoint" />
          </mxGeometry>
        </mxCell>
        <mxCell id="3-A2UudCUCXNyehRnWcf-11" value="Стратегия обучения модели" style="edgeLabel;html=1;align=center;verticalAlign=middle;resizable=0;points=[];" vertex="1" connectable="0" parent="3-A2UudCUCXNyehRnWcf-10">
          <mxGeometry x="-0.0133" relative="1" as="geometry">
            <mxPoint x="80" y="-29" as="offset" />
          </mxGeometry>
        </mxCell>
        <mxCell id="3-A2UudCUCXNyehRnWcf-12" value="" style="endArrow=classic;html=1;rounded=0;entryX=0.5;entryY=1;entryDx=0;entryDy=0;" edge="1" parent="1" target="3-A2UudCUCXNyehRnWcf-1">
          <mxGeometry width="50" height="50" relative="1" as="geometry">
            <mxPoint x="440" y="480" as="sourcePoint" />
            <mxPoint x="490" y="360" as="targetPoint" />
          </mxGeometry>
        </mxCell>
        <mxCell id="3-A2UudCUCXNyehRnWcf-13" value="Модель" style="edgeLabel;html=1;align=center;verticalAlign=middle;resizable=0;points=[];" vertex="1" connectable="0" parent="3-A2UudCUCXNyehRnWcf-12">
          <mxGeometry x="-0.2079" y="-2" relative="1" as="geometry">
            <mxPoint x="28" y="-11" as="offset" />
          </mxGeometry>
        </mxCell>
      </root>
    </mxGraphModel>
  </diagram>
</mxfile>
